
<svg width="1080" height="1080" viewBox="0 0 1080 1080" fill="none" xmlns="http://www.w3.org/2000/svg">
<rect width="1080" height="1080" fill="#11001E"/>
<path d="M401.917 780.146H533.966H649.168C649.867 780.146 650.561 780.251 651.229 780.457L710.94 798.855C715.759 800.339 720.52 796.396 719.958 791.384L715.724 753.653C715.224 749.199 718.982 745.429 723.438 745.914L785.82 752.709C791.192 753.294 795.173 747.829 792.969 742.895L760.459 670.111C759.022 666.893 760.201 663.11 763.21 661.277L830.308 620.417C834.351 617.955 834.836 612.274 831.269 609.163L757.873 545.141C754.251 541.982 754.818 536.196 758.984 533.799L882.731 462.601C887.755 459.71 887.29 452.315 881.942 450.077L756.228 397.458C751.823 395.614 750.516 390 753.654 386.401L876.541 245.432C880.697 240.665 876.901 233.267 870.605 233.863L693.728 250.611C689.394 251.022 685.74 247.418 686.091 243.079L702.169 44.1033C702.674 37.8511 695.334 34.1414 690.599 38.2561L512.315 193.207C509.504 195.649 505.274 195.464 502.687 192.786L371.617 57.053C367.244 52.5243 359.581 55.62 359.581 61.9155V264.826C359.581 269.378 355.305 272.719 350.889 271.619L185 230.283C178.746 228.724 173.887 235.731 177.54 241.042L273.938 381.185C276.355 384.7 275.094 389.541 271.268 391.429L162.523 445.098C157.356 447.647 157.311 454.999 162.445 457.613L284.429 519.707C288.791 521.927 289.586 527.824 285.968 531.12L216.014 594.842C212.588 597.963 213.086 603.491 217.013 605.95L292.67 653.325C295.581 655.148 296.74 658.813 295.405 661.978L270.048 722.116C268.187 726.531 271.212 731.47 275.991 731.817L345.735 736.887C350.14 737.207 353.151 741.476 351.975 745.733L341.856 782.352C340.456 787.416 344.927 792.16 350.065 791.062L400.455 780.301C400.935 780.198 401.425 780.146 401.917 780.146Z" fill="#9ACEE8"/>
<rect x="376" y="269" width="328" height="328" rx="164" fill="#7C5A41"/>
<rect x="368" y="256" width="344" height="568" rx="172" fill="#E2D4CC"/>
<circle cx="456" cy="467" r="60" fill="white"/>
<circle cx="624" cy="467" r="60" fill="white"/>
<circle cx="715" cy="627" r="48" fill="#E2D4CC"/>
<rect x="396" y="498" width="120" height="29" fill="#E2D4CC"/>
<rect x="396" y="407" width="120" height="29" fill="#E2D4CC"/>
<rect x="564" y="498" width="120" height="29" fill="#E2D4CC"/>
<rect x="564" y="407" width="120" height="29" fill="#E2D4CC"/>
<circle cx="364" cy="627" r="48" fill="#E2D4CC"/>
<path opacity="0.1" d="M524 545V585C524 593.837 531.163 601 540 601V601C548.837 601 556 593.837 556 585V545" stroke="black" stroke-width="8" stroke-linecap="round"/>
<path opacity="0.1" d="M494.526 693.757L491.178 691.567C485.631 687.94 478.194 689.497 474.567 695.043V695.043C470.94 700.59 472.496 708.027 478.043 711.654L481.391 713.843" stroke="black" stroke-width="6" stroke-linecap="round"/>
<path opacity="0.1" d="M585 693.757L588.348 691.567C593.895 687.94 601.331 689.497 604.959 695.043V695.043C608.586 700.59 607.029 708.027 601.483 711.654L598.135 713.843" stroke="black" stroke-width="6" stroke-linecap="round"/>
<path d="M519 720H539V735C539 740.523 534.523 745 529 745C523.477 745 519 740.523 519 735V720Z" fill="#8DE285"/>
<path d="M539 720H560V771.5C560 777.299 555.299 782 549.5 782C543.701 782 539 777.299 539 771.5V720Z" fill="#8DE285"/>
<path d="M560 717.852L580 710V753C580 758.523 575.523 763 570 763C564.477 763 560 758.523 560 753V717.852Z" fill="#8DE285"/>
<path opacity="0.1" d="M409 534.246C424.6 555.68 454.621 560.409 476.055 544.809" stroke="black" stroke-width="8" stroke-linecap="round"/>
<path opacity="0.1" d="M671.11 534.246C655.51 555.68 625.489 560.409 604.055 544.809" stroke="black" stroke-width="8" stroke-linecap="round"/>
<path d="M589.877 705.149C571.132 723.894 508.746 723.471 490 704.726" stroke="black" stroke-width="8" stroke-linecap="round"/>
<path d="M454.671 460.883C454.991 459.467 457.009 459.467 457.329 460.883C457.536 461.801 458.59 462.238 459.385 461.735C460.613 460.96 462.04 462.387 461.265 463.615C460.762 464.41 461.199 465.464 462.117 465.671C463.533 465.991 463.533 468.009 462.117 468.329C461.199 468.536 460.762 469.59 461.265 470.385C462.04 471.613 460.613 473.04 459.385 472.265C458.59 471.762 457.536 472.199 457.329 473.117C457.009 474.533 454.991 474.533 454.671 473.117C454.464 472.199 453.41 471.762 452.615 472.265C451.387 473.04 449.96 471.613 450.735 470.385C451.238 469.59 450.801 468.536 449.883 468.329C448.467 468.009 448.467 465.991 449.883 465.671C450.801 465.464 451.238 464.41 450.735 463.615C449.96 462.387 451.387 460.96 452.615 461.735C453.41 462.238 454.464 461.801 454.671 460.883Z" fill="black"/>
<path d="M622.671 460.883C622.991 459.467 625.009 459.467 625.329 460.883C625.536 461.801 626.59 462.238 627.385 461.735C628.613 460.96 630.04 462.387 629.265 463.615C628.762 464.41 629.199 465.464 630.117 465.671C631.533 465.991 631.533 468.009 630.117 468.329C629.199 468.536 628.762 469.59 629.265 470.385C630.04 471.613 628.613 473.04 627.385 472.265C626.59 471.762 625.536 472.199 625.329 473.117C625.009 474.533 622.991 474.533 622.671 473.117C622.464 472.199 621.41 471.762 620.615 472.265C619.387 473.04 617.96 471.613 618.735 470.385C619.238 469.59 618.801 468.536 617.883 468.329C616.467 468.009 616.467 465.991 617.883 465.671C618.801 465.464 619.238 464.41 618.735 463.615C617.96 462.387 619.387 460.96 620.615 461.735C621.41 462.238 622.464 461.801 622.671 460.883Z" fill="black"/>
<rect x="396" y="388" width="288" height="24" rx="12" fill="#9ACEE8"/>
</svg>